<svg xmlns="http://www.w3.org/2000/svg" viewBox="0 0 500 500"><g id="freepik--Bookcase--inject-197"><rect x="144.54" y="56.5" width="45.32" height="376.72" style="fill:#407BFF"></rect><g style="opacity:0.6000000000000001"><rect x="144.54" y="56.5" width="45.32" height="376.72"></rect></g><rect x="276.8" y="213.99" width="21.71" height="37.41" transform="translate(575.32 465.4) rotate(180)" style="fill:#407BFF"></rect><rect x="216.24" y="205.3" width="17.14" height="46.71" transform="translate(449.63 457.3) rotate(180)" style="fill:#455a64"></rect><path d="M216.05,208.67a74.81,74.81,0,0,1,8.75-.26,74.67,74.67,0,0,1,8.75.26,74.67,74.67,0,0,1-8.75.26A74.81,74.81,0,0,1,216.05,208.67Z" style="fill:#fafafa"></path><path d="M217,210.89a64.75,64.75,0,0,1,8.28-.26,64.62,64.62,0,0,1,8.28.26,66.89,66.89,0,0,1-8.28.26A67,67,0,0,1,217,210.89Z" style="fill:#fafafa"></path><path d="M224.33,242.79c-.15,0-.26-6.18-.26-13.81s.11-13.82.26-13.82.26,6.18.26,13.82S224.47,242.79,224.33,242.79Z" style="fill:#fafafa"></path><path d="M216.24,247.07a65.37,65.37,0,0,1,8.4-.27,65.27,65.27,0,0,1,8.39.27,68.82,68.82,0,0,1-8.39.26A68.92,68.92,0,0,1,216.24,247.07Z" style="fill:#fafafa"></path><path d="M216.24,249.07a72.48,72.48,0,0,1,8.61-.26,72.24,72.24,0,0,1,8.6.26,72.24,72.24,0,0,1-8.6.26A72.48,72.48,0,0,1,216.24,249.07Z" style="fill:#fafafa"></path><rect x="233.38" y="200.25" width="13.77" height="51.76" transform="translate(480.52 452.25) rotate(180)" style="fill:#407BFF"></rect><path d="M233.29,224a12.52,12.52,0,0,1,2.13,1.47l5,3.77,5,3.78a14,14,0,0,1,2,1.66,12.5,12.5,0,0,1-2.21-1.36c-1.32-.9-3.11-2.19-5.06-3.66s-3.66-2.87-4.88-3.9A12.24,12.24,0,0,1,233.29,224Z" style="fill:#fafafa"></path><path d="M233.23,215.91a78.89,78.89,0,0,1,7.05,5.7,77.42,77.42,0,0,1,6.7,6.09,79.69,79.69,0,0,1-7-5.7A78.57,78.57,0,0,1,233.23,215.91Z" style="fill:#fafafa"></path><rect x="173.53" y="202.73" width="6.59" height="49.3" transform="translate(353.64 454.77) rotate(180)" style="fill:#407BFF"></rect><path d="M173.8,209.45a15.51,15.51,0,0,0,6.17,0,15.51,15.51,0,0,0-6.17,0Z" style="fill:#fafafa"></path><ellipse cx="176.75" cy="208.38" rx="3.09" ry="0.31" style="fill:#fafafa"></ellipse><path d="M173.8,248.23a15.51,15.51,0,0,0,6.17,0,15.51,15.51,0,0,0-6.17,0Z" style="fill:#fafafa"></path><path d="M173.67,247.15a15.51,15.51,0,0,0,6.17,0,15.51,15.51,0,0,0-6.17,0Z" style="fill:#fafafa"></path><path d="M177,240.71c.17,0,.31-5.64.31-12.61s-.14-12.61-.31-12.61-.31,5.64-.31,12.61S176.85,240.71,177,240.71Z" style="fill:#fafafa"></path><rect x="203.04" y="202.42" width="13.17" height="49.3" transform="translate(419.26 454.14) rotate(180)" style="fill:#263238"></rect><path d="M212.51,252.35s.06-.08.16-.26.22-.46.37-.82a14.69,14.69,0,0,0,1-3.35,8.7,8.7,0,0,0-.77-5.42,7.32,7.32,0,0,0-2.34-2.58,5.38,5.38,0,0,0-3.79-.89,4,4,0,0,0-2,.9,2.57,2.57,0,0,0-.95,2.08,3,3,0,0,0,1.13,2.09,4.15,4.15,0,0,0,2.25,1,6,6,0,0,0,4.66-1.7,7.48,7.48,0,0,0,2.32-4.74,12.51,12.51,0,0,0-.68-5.5,10.17,10.17,0,0,0-3.23-4.81,5.34,5.34,0,0,0-2.85-1.12,3.72,3.72,0,0,0-3,1.05,2.36,2.36,0,0,0-.67,1.54,2.83,2.83,0,0,0,.45,1.62,4.29,4.29,0,0,0,2.66,1.81,6.22,6.22,0,0,0,5.8-1.94,9.71,9.71,0,0,0,2.26-5.56,13.57,13.57,0,0,0-.57-5.75,8,8,0,0,0-3.4-4.38,5.86,5.86,0,0,0-5.23-.55,2.75,2.75,0,0,0-1.7,2,3.17,3.17,0,0,0,.6,2.48,4.1,4.1,0,0,0,4.43,1.17,7.66,7.66,0,0,0,3.51-2.48,11.26,11.26,0,0,0,2.62-6.76,10.73,10.73,0,0,0-1.22-5.36,10.62,10.62,0,0,0-2.07-2.79,7.37,7.37,0,0,0-.68-.59c-.16-.13-.25-.19-.26-.18a12.43,12.43,0,0,1,2.8,3.67,10.64,10.64,0,0,1-1.53,11.72,7.22,7.22,0,0,1-3.3,2.31,3.6,3.6,0,0,1-3.89-1,2.63,2.63,0,0,1-.49-2.07,2.22,2.22,0,0,1,1.4-1.62,5.29,5.29,0,0,1,4.72.54,7.33,7.33,0,0,1,3.13,4.08,13.16,13.16,0,0,1,.53,5.5,9.19,9.19,0,0,1-2.11,5.2,5.63,5.63,0,0,1-5.21,1.76,3.7,3.7,0,0,1-2.27-1.54,1.9,1.9,0,0,1,.14-2.41,3.13,3.13,0,0,1,2.47-.86,4.68,4.68,0,0,1,2.52,1,9.55,9.55,0,0,1,3,4.51,12,12,0,0,1,.67,5.24,7,7,0,0,1-2.12,4.41,5.45,5.45,0,0,1-4.24,1.58,3.14,3.14,0,0,1-3-2.55,2.12,2.12,0,0,1,.77-1.71,3.52,3.52,0,0,1,1.73-.82,5,5,0,0,1,3.51.79,7,7,0,0,1,2.24,2.42,8.53,8.53,0,0,1,.84,5.22,15.48,15.48,0,0,1-.84,3.33C212.65,252,212.49,252.34,212.51,252.35Z" style="fill:#fafafa"></path><rect x="180.01" y="206.84" width="22.86" height="44.9" transform="translate(382.87 458.59) rotate(180)" style="fill:#407BFF"></rect><g style="opacity:0.2"><rect x="180.01" y="206.84" width="22.86" height="44.9" transform="translate(382.87 458.59) rotate(180)"></rect></g><path d="M180.79,214.3c0,.17,5,.31,11.06.31s11.07-.14,11.07-.31-5-.31-11.07-.31S180.79,214.13,180.79,214.3Z" style="fill:#e0e0e0"></path><path d="M180.51,217.71c0,.17,4.89.31,10.92.31s10.92-.14,10.92-.31-4.89-.31-10.92-.31S180.51,217.54,180.51,217.71Z" style="fill:#e0e0e0"></path><path d="M179.77,246.67c0,.17,5.15.31,11.5.31s11.5-.14,11.5-.31-5.14-.31-11.5-.31S179.77,246.5,179.77,246.67Z" style="fill:#e0e0e0"></path><path d="M180.08,242.67c0,.17,5,.31,11.21.31s11.2-.14,11.2-.31-5-.31-11.2-.31S180.08,242.5,180.08,242.67Z" style="fill:#e0e0e0"></path><rect x="247.14" y="202.1" width="13.17" height="49.3" transform="translate(507.45 453.51) rotate(180)" style="fill:#455a64"></rect><path d="M256.6,252a1.13,1.13,0,0,0,.16-.27c.09-.18.22-.45.37-.82a14.09,14.09,0,0,0,1-3.34,8.73,8.73,0,0,0-.77-5.43,7.21,7.21,0,0,0-2.34-2.57,5.38,5.38,0,0,0-3.79-.9,4,4,0,0,0-2,.91,2.62,2.62,0,0,0-.95,2.08,3,3,0,0,0,1.13,2.09,4.14,4.14,0,0,0,2.25,1,6,6,0,0,0,4.67-1.7,7.49,7.49,0,0,0,2.31-4.74,12.53,12.53,0,0,0-.68-5.5,10.1,10.1,0,0,0-3.23-4.8,5.19,5.19,0,0,0-2.84-1.12,3.67,3.67,0,0,0-3,1,2.42,2.42,0,0,0-.68,1.55,2.82,2.82,0,0,0,.45,1.61,4.25,4.25,0,0,0,2.66,1.81,6.18,6.18,0,0,0,5.8-1.94,9.68,9.68,0,0,0,2.26-5.55,13.77,13.77,0,0,0-.56-5.76,7.91,7.91,0,0,0-3.41-4.37,5.8,5.8,0,0,0-5.23-.55,2.75,2.75,0,0,0-1.7,2,3.15,3.15,0,0,0,.6,2.48,4.12,4.12,0,0,0,4.44,1.18,7.77,7.77,0,0,0,3.5-2.49,11.13,11.13,0,0,0,2.62-6.76A10.86,10.86,0,0,0,256.4,203a7.45,7.45,0,0,0-.69-.59,1.29,1.29,0,0,0-.25-.17,12.57,12.57,0,0,1,2.79,3.66,10.65,10.65,0,0,1,1.09,5.23,10.94,10.94,0,0,1-2.62,6.5,7.24,7.24,0,0,1-3.3,2.31,3.64,3.64,0,0,1-3.89-1,2.67,2.67,0,0,1-.49-2.07,2.2,2.2,0,0,1,1.4-1.61,5.29,5.29,0,0,1,4.72.54,7.36,7.36,0,0,1,3.14,4.08,13.26,13.26,0,0,1,.52,5.49,9.06,9.06,0,0,1-2.11,5.2,5.6,5.6,0,0,1-5.21,1.76,3.62,3.62,0,0,1-2.27-1.54,1.88,1.88,0,0,1,.15-2.4,3,3,0,0,1,2.46-.86,4.59,4.59,0,0,1,2.52,1,9.6,9.6,0,0,1,3,4.51,12,12,0,0,1,.67,5.24,6.92,6.92,0,0,1-2.12,4.41,5.47,5.47,0,0,1-4.24,1.59,3.15,3.15,0,0,1-3-2.56,2.14,2.14,0,0,1,.77-1.71,3.61,3.61,0,0,1,1.73-.82,5.05,5.05,0,0,1,3.51.8,7,7,0,0,1,2.25,2.41,8.59,8.59,0,0,1,.83,5.22,15.58,15.58,0,0,1-.83,3.33C256.75,251.65,256.58,252,256.6,252Z" style="fill:#fafafa"></path><rect x="155.22" y="199.61" width="18.31" height="51.79" transform="translate(328.75 451.02) rotate(180)" style="fill:#407BFF"></rect><g style="opacity:0.30000000000000004"><rect x="155.22" y="199.61" width="18.31" height="51.79" transform="translate(328.75 451.02) rotate(180)" style="fill:#fff"></rect></g><rect x="260.31" y="205.3" width="17.12" height="46.11" transform="translate(537.74 456.7) rotate(180)" style="fill:#263238"></rect><path d="M277.86,228.29a14.41,14.41,0,0,0,2.72,1.94,9.49,9.49,0,0,0,3.45,1,8.79,8.79,0,0,0,4.27-.74c1.44-.62,2.77-1.41,4.11-1.87a6.41,6.41,0,0,1,3.73-.34,4,4,0,0,1,2.17,1.31,1.56,1.56,0,0,1,.42.82s-.17-.28-.58-.69a4,4,0,0,0-2.09-1.08,6.2,6.2,0,0,0-3.48.43c-1.28.46-2.58,1.26-4.08,1.9a9,9,0,0,1-4.52.74,9.27,9.27,0,0,1-3.57-1.11,7.8,7.8,0,0,1-2-1.52A2.5,2.5,0,0,1,277.86,228.29Z" style="fill:#fafafa"></path><path d="M277.48,232.86a13.85,13.85,0,0,0,2.72,1.93,9.38,9.38,0,0,0,3.44,1,8.94,8.94,0,0,0,4.28-.75c1.44-.61,2.77-1.41,4.11-1.87a6.48,6.48,0,0,1,3.73-.34,4,4,0,0,1,2.16,1.31c.38.48.45.82.42.82s-.17-.28-.57-.69a4.08,4.08,0,0,0-2.09-1.08,6.32,6.32,0,0,0-3.49.43c-1.28.47-2.58,1.26-4.07,1.9a9,9,0,0,1-4.52.74,9.22,9.22,0,0,1-3.57-1.1,8.12,8.12,0,0,1-2-1.53C277.62,233.16,277.45,232.87,277.48,232.86Z" style="fill:#fafafa"></path><path d="M277.76,218.09a104.45,104.45,0,0,1,10.53-.26,104.32,104.32,0,0,1,10.52.26c0,.14-4.71.26-10.52.26S277.76,218.23,277.76,218.09Z" style="fill:#fafafa"></path><path d="M270,212.73a2.42,2.42,0,0,0-1.49-.13,1.84,1.84,0,0,0-1.16,1,1.53,1.53,0,0,0,.44,1.67,1.55,1.55,0,0,0,1.69.38,1.82,1.82,0,0,0,.92-1.2,2.46,2.46,0,0,0-.19-1.48s.17.06.33.32a1.89,1.89,0,0,1,.22,1.23,2.14,2.14,0,0,1-1.07,1.56,2.1,2.1,0,0,1-2.77-2.67,2.14,2.14,0,0,1,1.51-1.13,1.91,1.91,0,0,1,1.24.17C269.93,212.56,270,212.71,270,212.73Z" style="fill:#fafafa"></path><path d="M268.9,246.79c-.15,0-.27-6.46-.27-14.43s.12-14.44.27-14.44.26,6.46.26,14.44S269,246.79,268.9,246.79Z" style="fill:#fafafa"></path><path d="M305.25,56.5l-159.79-.85H131V433.21h14.44V390.76H305.25v42.45h14.44V56.5Zm0,324.11H145.46V325.76H305.25Zm0-65H145.46V260.76H305.25Zm0-65H145.46V195.77H305.25Zm0-65H145.46V130.77H305.25Zm0-65H145.46v-54H305.25Z" style="fill:#407BFF"></path><rect x="319.47" y="56.5" width="45.32" height="376.72" style="fill:#407BFF"></rect><rect x="209.35" y="107.91" width="43.73" height="12.56" style="fill:#455a64"></rect><path d="M213.47,119.61a31.29,31.29,0,0,1-.26-5.75,31.44,31.44,0,0,1,.26-5.76,32.54,32.54,0,0,1,.26,5.76A32.38,32.38,0,0,1,213.47,119.61Z" style="fill:#263238"></path><path d="M215.39,119.61a31.29,31.29,0,0,1-.26-5.75,31.44,31.44,0,0,1,.26-5.76,32.54,32.54,0,0,1,.26,5.76A32.38,32.38,0,0,1,215.39,119.61Z" style="fill:#263238"></path><path d="M246.28,119.61a31.29,31.29,0,0,1-.26-5.75,31.44,31.44,0,0,1,.26-5.76,32.54,32.54,0,0,1,.26,5.76A32.38,32.38,0,0,1,246.28,119.61Z" style="fill:#263238"></path><path d="M248,119.61a32.38,32.38,0,0,1-.26-5.75,32.54,32.54,0,0,1,.26-5.76,31.44,31.44,0,0,1,.26,5.76A31.29,31.29,0,0,1,248,119.61Z" style="fill:#263238"></path><path d="M243.31,114c0,.14-5.67.26-12.66.26S218,114.11,218,114s5.67-.26,12.67-.26S243.31,113.82,243.31,114Z" style="fill:#263238"></path><rect x="212.92" y="95.36" width="43.73" height="12.56" style="fill:#407BFF"></rect><path d="M217,107.06a30.88,30.88,0,0,1-.27-5.76,30.72,30.72,0,0,1,.27-5.75,32.38,32.38,0,0,1,.26,5.75A32.54,32.54,0,0,1,217,107.06Z" style="fill:#263238"></path><path d="M219,107.06a32.54,32.54,0,0,1-.26-5.76,32.38,32.38,0,0,1,.26-5.75,31.29,31.29,0,0,1,.26,5.75A31.44,31.44,0,0,1,219,107.06Z" style="fill:#263238"></path><path d="M249.85,107.06a31.44,31.44,0,0,1-.26-5.76,31.29,31.29,0,0,1,.26-5.75,32.38,32.38,0,0,1,.26,5.75A32.54,32.54,0,0,1,249.85,107.06Z" style="fill:#263238"></path><path d="M251.57,107.06a32.54,32.54,0,0,1-.26-5.76,32.38,32.38,0,0,1,.26-5.75,32.38,32.38,0,0,1,.26,5.75A32.54,32.54,0,0,1,251.57,107.06Z" style="fill:#263238"></path><path d="M246.88,101.42c0,.14-5.67.26-12.67.26s-12.66-.12-12.66-.26,5.67-.26,12.66-.26S246.88,101.27,246.88,101.42Z" style="fill:#263238"></path><rect x="199.82" y="71.48" width="6.59" height="49.3" style="fill:#407BFF"></rect><path d="M206.13,78.2a15.51,15.51,0,0,1-6.17,0,15.51,15.51,0,0,1,6.17,0Z" style="fill:#fafafa"></path><path d="M206.27,77.13a15.56,15.56,0,0,1-6.18,0,15.56,15.56,0,0,1,6.18,0Z" style="fill:#fafafa"></path><path d="M206.13,117a15.51,15.51,0,0,1-6.17,0,15.51,15.51,0,0,1,6.17,0Z" style="fill:#fafafa"></path><path d="M206.27,115.9a15.56,15.56,0,0,1-6.18,0,15.56,15.56,0,0,1,6.18,0Z" style="fill:#fafafa"></path><path d="M202.91,109.46c-.17,0-.31-5.64-.31-12.61s.14-12.61.31-12.61.31,5.65.31,12.61S203.08,109.46,202.91,109.46Z" style="fill:#fafafa"></path><rect x="163.71" y="71.17" width="13.17" height="49.3" style="fill:#263238"></rect><path d="M167.42,121.11a1.41,1.41,0,0,1-.15-.27c-.1-.18-.22-.46-.38-.82a14.69,14.69,0,0,1-1-3.35,8.7,8.7,0,0,1,.77-5.42,7.32,7.32,0,0,1,2.34-2.58,5.38,5.38,0,0,1,3.79-.89,4,4,0,0,1,2,.9,2.59,2.59,0,0,1,.94,2.08,3,3,0,0,1-1.13,2.09,4.12,4.12,0,0,1-2.24,1,6,6,0,0,1-4.67-1.7,7.58,7.58,0,0,1-2.32-4.74,12.66,12.66,0,0,1,.68-5.5,10.25,10.25,0,0,1,3.23-4.81,5.37,5.37,0,0,1,2.85-1.12,3.71,3.71,0,0,1,3,1,2.36,2.36,0,0,1,.67,1.54,2.83,2.83,0,0,1-.45,1.62,4.29,4.29,0,0,1-2.66,1.81,6.22,6.22,0,0,1-5.8-1.94,9.71,9.71,0,0,1-2.26-5.55,13.6,13.6,0,0,1,.57-5.76,8,8,0,0,1,3.4-4.38,5.86,5.86,0,0,1,5.23-.55,2.78,2.78,0,0,1,1.71,2,3.21,3.21,0,0,1-.6,2.48,4.12,4.12,0,0,1-4.44,1.17A7.63,7.63,0,0,1,167,87a11.21,11.21,0,0,1-2.63-6.76,10.73,10.73,0,0,1,1.22-5.36,10.62,10.62,0,0,1,2.07-2.79,7.37,7.37,0,0,1,.68-.59c.17-.13.25-.19.26-.18a12.62,12.62,0,0,0-2.8,3.67,10.69,10.69,0,0,0,1.53,11.72A7.22,7.22,0,0,0,170.6,89a3.62,3.62,0,0,0,3.9-1A2.63,2.63,0,0,0,175,85.9a2.2,2.2,0,0,0-1.4-1.62,5.29,5.29,0,0,0-4.72.54,7.42,7.42,0,0,0-3.13,4.08,13.16,13.16,0,0,0-.53,5.5,9.13,9.13,0,0,0,2.12,5.2,5.6,5.6,0,0,0,5.2,1.76,3.68,3.68,0,0,0,2.27-1.54,1.9,1.9,0,0,0-.14-2.41,3.13,3.13,0,0,0-2.47-.86,4.68,4.68,0,0,0-2.52,1,9.51,9.51,0,0,0-3,4.51,11.9,11.9,0,0,0-.68,5.24,7,7,0,0,0,2.12,4.41,5.45,5.45,0,0,0,4.24,1.58,3.14,3.14,0,0,0,2.95-2.55,2.09,2.09,0,0,0-.77-1.71,3.52,3.52,0,0,0-1.73-.82,5.06,5.06,0,0,0-3.51.79,7,7,0,0,0-2.24,2.42,8.53,8.53,0,0,0-.84,5.22A16.1,16.1,0,0,0,167,120C167.28,120.71,167.44,121.09,167.42,121.11Z" style="fill:#fafafa"></path><rect x="177.07" y="75.59" width="22.86" height="44.9" style="fill:#407BFF"></rect><g style="opacity:0.2"><rect x="177.07" y="75.59" width="22.86" height="44.9"></rect></g><path d="M199.14,83.05c0,.17-4.95.31-11.06.31S177,83.22,177,83.05s4.95-.31,11.06-.31S199.14,82.88,199.14,83.05Z" style="fill:#e0e0e0"></path><path d="M199.42,86.46c0,.17-4.89.31-10.92.31s-10.92-.14-10.92-.31,4.89-.31,10.92-.31S199.42,86.29,199.42,86.46Z" style="fill:#e0e0e0"></path><path d="M200.16,115.42c0,.17-5.15.31-11.5.31s-11.5-.14-11.5-.31,5.15-.31,11.5-.31S200.16,115.25,200.16,115.42Z" style="fill:#e0e0e0"></path><path d="M199.85,111.42c0,.17-5,.31-11.2.31s-11.21-.14-11.21-.31,5-.31,11.21-.31S199.85,111.25,199.85,111.42Z" style="fill:#e0e0e0"></path><rect x="210.39" y="91.15" width="54.15" height="4.21" style="fill:#263238"></rect><path d="M214.4,95.09c-.14,0-.26-.83-.26-1.86s.12-1.86.26-1.86.26.83.26,1.86S214.55,95.09,214.4,95.09Z" style="fill:#fff"></path><path d="M261.15,95.09c-.15,0-.26-.83-.26-1.86s.11-1.86.26-1.86.26.83.26,1.86S261.29,95.09,261.15,95.09Z" style="fill:#fff"></path><path d="M259,93.23c0,.14-9.41.26-21,.26s-21-.12-21-.26,9.42-.26,21-.26S259,93.08,259,93.23Z" style="fill:#fff"></path><rect x="281.09" y="79.62" width="6.89" height="40.99" style="fill:#407BFF"></rect><g style="opacity:0.30000000000000004"><rect x="281.09" y="79.62" width="6.89" height="40.99"></rect></g><rect x="288.1" y="73.9" width="17.14" height="46.71" style="fill:#455a64"></rect><path d="M305.44,77.27a72.27,72.27,0,0,1-8.75.26,72.14,72.14,0,0,1-8.75-.26,74.67,74.67,0,0,1,8.75-.26A74.81,74.81,0,0,1,305.44,77.27Z" style="fill:#fafafa"></path><path d="M304.5,79.49a67,67,0,0,1-8.28.26,66.89,66.89,0,0,1-8.28-.26,64.62,64.62,0,0,1,8.28-.26A64.75,64.75,0,0,1,304.5,79.49Z" style="fill:#fafafa"></path><path d="M297.16,111.4c-.14,0-.26-6.19-.26-13.82s.12-13.82.26-13.82.27,6.19.27,13.82S297.31,111.4,297.16,111.4Z" style="fill:#fafafa"></path><path d="M305.25,115.67a68.92,68.92,0,0,1-8.4.26,68.82,68.82,0,0,1-8.39-.26,66.48,66.48,0,0,1,8.39-.26A66.58,66.58,0,0,1,305.25,115.67Z" style="fill:#fafafa"></path><path d="M305.25,117.67a70,70,0,0,1-8.61.26,69.79,69.79,0,0,1-8.6-.26,72.24,72.24,0,0,1,8.6-.26A72.48,72.48,0,0,1,305.25,117.67Z" style="fill:#fafafa"></path><rect x="267.43" y="73.9" width="13.77" height="46.71" style="fill:#407BFF"></rect><path d="M281.29,95.35A11.24,11.24,0,0,1,279.38,97c-1.23.94-2.95,2.2-4.89,3.53s-3.74,2.49-5.06,3.3a11.45,11.45,0,0,1-2.19,1.2,12.41,12.41,0,0,1,2-1.51l5-3.42,5-3.4A12.28,12.28,0,0,1,281.29,95.35Z" style="fill:#fafafa"></path><path d="M281.35,88a74.05,74.05,0,0,1-6.72,5.52,72.46,72.46,0,0,1-7,5.11,74.05,74.05,0,0,1,6.72-5.52A69.72,69.72,0,0,1,281.35,88Z" style="fill:#fafafa"></path><rect x="210.24" y="303.42" width="43.73" height="12.56" transform="translate(464.21 619.41) rotate(180)" style="fill:#455a64"></rect><path d="M249.85,315.12a63.82,63.82,0,0,1,0-11.51,63.82,63.82,0,0,1,0,11.51Z" style="fill:#263238"></path><path d="M247.93,315.12a63.82,63.82,0,0,1,0-11.51,63.82,63.82,0,0,1,0,11.51Z" style="fill:#263238"></path><path d="M217,315.12a63.82,63.82,0,0,1,0-11.51,63.82,63.82,0,0,1,0,11.51Z" style="fill:#263238"></path><path d="M215.32,315.12a63.82,63.82,0,0,1,0-11.51,63.82,63.82,0,0,1,0,11.51Z" style="fill:#263238"></path><path d="M220,309.48c0-.14,5.67-.26,12.66-.26s12.66.12,12.66.26-5.66.26-12.66.26S220,309.62,220,309.48Z" style="fill:#263238"></path><rect x="207.42" y="292.02" width="43.73" height="12.56" transform="translate(458.56 596.6) rotate(180)" style="fill:#407BFF"></rect><path d="M247,303.72a63.93,63.93,0,0,1,0-11.52,63.93,63.93,0,0,1,0,11.52Z" style="fill:#263238"></path><path d="M245.11,303.72a63.93,63.93,0,0,1,0-11.52,63.93,63.93,0,0,1,0,11.52Z" style="fill:#263238"></path><path d="M214.21,303.72a63.93,63.93,0,0,1,0-11.52,63.93,63.93,0,0,1,0,11.52Z" style="fill:#263238"></path><path d="M212.49,303.72a63.93,63.93,0,0,1,0-11.52,63.93,63.93,0,0,1,0,11.52Z" style="fill:#263238"></path><path d="M217.18,298.07c0-.14,5.67-.26,12.66-.26s12.67.12,12.67.26-5.67.26-12.67.26S217.18,298.22,217.18,298.07Z" style="fill:#263238"></path><rect x="257.65" y="267.1" width="6.59" height="49.3" transform="translate(521.89 583.49) rotate(180)" style="fill:#407BFF"></rect><path d="M257.93,273.81a15.51,15.51,0,0,0,6.17,0,15.51,15.51,0,0,0-6.17,0Z" style="fill:#fafafa"></path><path d="M257.79,272.74a15.51,15.51,0,0,0,6.17,0,15.51,15.51,0,0,0-6.17,0Z" style="fill:#fafafa"></path><path d="M257.93,312.59a15.51,15.51,0,0,0,6.17,0,15.51,15.51,0,0,0-6.17,0Z" style="fill:#fafafa"></path><path d="M257.79,311.51a15.51,15.51,0,0,0,6.17,0,15.51,15.51,0,0,0-6.17,0Z" style="fill:#fafafa"></path><path d="M261.15,305.07c.17,0,.31-5.64.31-12.61s-.14-12.61-.31-12.61-.31,5.65-.31,12.61S261,305.07,261.15,305.07Z" style="fill:#fafafa"></path><rect x="287.17" y="266.78" width="13.17" height="49.3" transform="translate(587.51 582.86) rotate(180)" style="fill:#263238"></rect><path d="M296.64,316.72a1.41,1.41,0,0,0,.15-.27c.1-.18.22-.46.38-.82a14.27,14.27,0,0,0,.95-3.35,8.7,8.7,0,0,0-.77-5.42,7.2,7.2,0,0,0-2.33-2.58,5.41,5.41,0,0,0-3.8-.89,4,4,0,0,0-2,.9,2.59,2.59,0,0,0-.94,2.08,3,3,0,0,0,1.12,2.09,4.15,4.15,0,0,0,2.25,1,6,6,0,0,0,4.67-1.7,7.58,7.58,0,0,0,2.32-4.74,12.66,12.66,0,0,0-.69-5.5,10.1,10.1,0,0,0-3.23-4.81,5.31,5.31,0,0,0-2.84-1.12,3.71,3.71,0,0,0-3,1.05,2.42,2.42,0,0,0-.68,1.54,2.92,2.92,0,0,0,.46,1.62,4.25,4.25,0,0,0,2.66,1.81,6.22,6.22,0,0,0,5.8-1.94,9.71,9.71,0,0,0,2.26-5.55,13.6,13.6,0,0,0-.57-5.76,8,8,0,0,0-3.4-4.38,5.86,5.86,0,0,0-5.23-.55,2.76,2.76,0,0,0-1.71,2,3.21,3.21,0,0,0,.6,2.48,4.12,4.12,0,0,0,4.44,1.17,7.63,7.63,0,0,0,3.5-2.48,11.21,11.21,0,0,0,2.63-6.76,10.84,10.84,0,0,0-1.22-5.36,10.62,10.62,0,0,0-2.07-2.79c-.29-.27-.52-.47-.68-.59s-.25-.19-.26-.18a12.83,12.83,0,0,1,2.8,3.67,10.69,10.69,0,0,1-1.53,11.72,7.24,7.24,0,0,1-3.3,2.32,3.65,3.65,0,0,1-3.9-1,2.67,2.67,0,0,1-.49-2.07,2.25,2.25,0,0,1,1.4-1.62,5.28,5.28,0,0,1,4.72.54,7.39,7.39,0,0,1,3.14,4.08,13,13,0,0,1,.52,5.5,9.06,9.06,0,0,1-2.11,5.2,5.61,5.61,0,0,1-5.2,1.76,3.73,3.73,0,0,1-2.28-1.54,1.9,1.9,0,0,1,.15-2.41,3.12,3.12,0,0,1,2.47-.86,4.71,4.71,0,0,1,2.52,1,9.58,9.58,0,0,1,3,4.51,11.9,11.9,0,0,1,.68,5.24,7,7,0,0,1-2.12,4.41,5.45,5.45,0,0,1-4.24,1.58,3.14,3.14,0,0,1-2.95-2.55,2.07,2.07,0,0,1,.77-1.71,3.52,3.52,0,0,1,1.73-.82,5,5,0,0,1,3.5.79,6.89,6.89,0,0,1,2.25,2.42,8.44,8.44,0,0,1,.83,5.22,15.58,15.58,0,0,1-.83,3.33A10.58,10.58,0,0,0,296.64,316.72Z" style="fill:#fafafa"></path><rect x="264.13" y="271.2" width="22.86" height="44.9" transform="translate(551.12 587.31) rotate(180)" style="fill:#407BFF"></rect><g style="opacity:0.2"><rect x="264.13" y="271.2" width="22.86" height="44.9" transform="translate(551.12 587.31) rotate(180)"></rect></g><path d="M264.92,278.66c0,.17,4.95.31,11.06.31s11.06-.14,11.06-.31-5-.31-11.06-.31S264.92,278.49,264.92,278.66Z" style="fill:#e0e0e0"></path><path d="M264.64,282.07c0,.17,4.88.31,10.91.31s10.93-.14,10.93-.31-4.89-.31-10.93-.31S264.64,281.9,264.64,282.07Z" style="fill:#e0e0e0"></path><path d="M263.9,311c0,.17,5.15.31,11.5.31s11.5-.14,11.5-.31-5.15-.31-11.5-.31S263.9,310.86,263.9,311Z" style="fill:#e0e0e0"></path><path d="M264.21,307c0,.17,5,.31,11.2.31s11.21-.14,11.21-.31-5-.31-11.21-.31S264.21,306.86,264.21,307Z" style="fill:#e0e0e0"></path><rect x="199.53" y="287.81" width="54.15" height="4.21" transform="translate(453.2 579.82) rotate(180)" style="fill:#263238"></rect><path d="M249.66,291.75c-.15,0-.26-.84-.26-1.87s.11-1.86.26-1.86.26.84.26,1.86S249.8,291.75,249.66,291.75Z" style="fill:#fff"></path><path d="M202.91,291.75c-.14,0-.26-.84-.26-1.87s.12-1.86.26-1.86.26.84.26,1.86S203.06,291.75,202.91,291.75Z" style="fill:#fff"></path><path d="M205,289.88c0-.14,9.41-.26,21-.26s21,.12,21,.26-9.41.27-21,.27S205,290,205,289.88Z" style="fill:#fff"></path><rect x="176.08" y="275.23" width="6.89" height="40.99" transform="translate(359.04 591.44) rotate(180)" style="fill:#407BFF"></rect><g style="opacity:0.30000000000000004"><rect x="176.08" y="275.23" width="6.89" height="40.99" transform="translate(359.04 591.44) rotate(180)"></rect></g><rect x="158.81" y="269.51" width="17.14" height="46.71" transform="translate(334.77 585.72) rotate(180)" style="fill:#407BFF"></rect><path d="M158.61,272.88a74.92,74.92,0,0,1,8.76-.26,74.81,74.81,0,0,1,8.75.26,72.27,72.27,0,0,1-8.75.26A72.38,72.38,0,0,1,158.61,272.88Z" style="fill:#fafafa"></path><path d="M159.56,275.1a64.75,64.75,0,0,1,8.28-.26,64.62,64.62,0,0,1,8.28.26,66.89,66.89,0,0,1-8.28.26A67,67,0,0,1,159.56,275.1Z" style="fill:#fafafa"></path><path d="M166.89,307c-.14,0-.26-6.19-.26-13.82s.12-13.82.26-13.82.26,6.19.26,13.82S167,307,166.89,307Z" style="fill:#fafafa"></path><path d="M158.81,311.28a66.48,66.48,0,0,1,8.39-.26,66.58,66.58,0,0,1,8.4.26,68.92,68.92,0,0,1-8.4.26A68.82,68.82,0,0,1,158.81,311.28Z" style="fill:#fafafa"></path><path d="M158.81,313.28a72.24,72.24,0,0,1,8.6-.26,72.34,72.34,0,0,1,8.61.26,69.89,69.89,0,0,1-8.61.26A69.79,69.79,0,0,1,158.81,313.28Z" style="fill:#fafafa"></path><rect x="182.85" y="269.51" width="13.77" height="46.71" transform="translate(379.48 585.72) rotate(180)" style="fill:#407BFF"></rect><path d="M182.77,291a12,12,0,0,1,2.13,1.32l5,3.39,5,3.42a12.41,12.41,0,0,1,2,1.51,11.66,11.66,0,0,1-2.2-1.2c-1.31-.81-3.1-2-5.05-3.3s-3.66-2.59-4.89-3.53A10.28,10.28,0,0,1,182.77,291Z" style="fill:#fafafa"></path><path d="M182.71,283.65a71.06,71.06,0,0,1,7,5.11,74.05,74.05,0,0,1,6.72,5.52,70.45,70.45,0,0,1-7-5.11A74.7,74.7,0,0,1,182.71,283.65Z" style="fill:#fafafa"></path><path d="M183.71,183.72c0,.15-4.85.26-10.83.26s-10.83-.11-10.83-.26,4.85-.26,10.83-.26S183.71,183.58,183.71,183.72Z" style="fill:#fafafa"></path><rect x="161.95" y="148.14" width="21.71" height="37.41" style="fill:#407BFF"></rect><rect x="227.08" y="139.45" width="17.14" height="46.71" style="fill:#455a64"></rect><path d="M244.42,142.82a74.81,74.81,0,0,1-8.75.26,74.92,74.92,0,0,1-8.76-.26,74.92,74.92,0,0,1,8.76-.26A74.81,74.81,0,0,1,244.42,142.82Z" style="fill:#fafafa"></path><path d="M243.47,145a67,67,0,0,1-8.28.26,67,67,0,0,1-8.28-.26,64.75,64.75,0,0,1,8.28-.26A64.75,64.75,0,0,1,243.47,145Z" style="fill:#fafafa"></path><path d="M236.14,176.94c-.14,0-.26-6.18-.26-13.81s.12-13.82.26-13.82.26,6.18.26,13.82S236.29,176.94,236.14,176.94Z" style="fill:#fafafa"></path><path d="M244.22,181.22a68.68,68.68,0,0,1-8.39.26,68.82,68.82,0,0,1-8.39-.26,65.27,65.27,0,0,1,8.39-.27A65.14,65.14,0,0,1,244.22,181.22Z" style="fill:#fafafa"></path><path d="M244.22,183.22a72.24,72.24,0,0,1-8.6.26,72.24,72.24,0,0,1-8.6-.26,72.24,72.24,0,0,1,8.6-.26A72.24,72.24,0,0,1,244.22,183.22Z" style="fill:#fafafa"></path><rect x="213.32" y="134.4" width="13.77" height="51.76" style="fill:#407BFF"></rect><path d="M227.18,158.17a12.87,12.87,0,0,1-1.9,1.76c-1.22,1-2.94,2.42-4.89,3.9s-3.74,2.76-5.06,3.66a12.26,12.26,0,0,1-2.2,1.36,12.67,12.67,0,0,1,2-1.66l5-3.78,5-3.77A12.52,12.52,0,0,1,227.18,158.17Z" style="fill:#fafafa"></path><path d="M227.24,150.06a78.57,78.57,0,0,1-6.71,6.09,77.26,77.26,0,0,1-7.05,5.7,78.57,78.57,0,0,1,6.71-6.09A77.26,77.26,0,0,1,227.24,150.06Z" style="fill:#fafafa"></path><rect x="280.35" y="136.88" width="6.59" height="49.3" style="fill:#407BFF"></rect><path d="M286.67,143.6a15.51,15.51,0,0,1-6.17,0,15.51,15.51,0,0,1,6.17,0Z" style="fill:#fafafa"></path><path d="M286.8,142.53a15.51,15.51,0,0,1-6.17,0,15.51,15.51,0,0,1,6.17,0Z" style="fill:#fafafa"></path><path d="M286.67,182.38a15.51,15.51,0,0,1-6.17,0,15.51,15.51,0,0,1,6.17,0Z" style="fill:#fafafa"></path><path d="M286.8,181.3a15.51,15.51,0,0,1-6.17,0,15.51,15.51,0,0,1,6.17,0Z" style="fill:#fafafa"></path><path d="M283.45,174.86c-.17,0-.31-5.64-.31-12.61s.14-12.61.31-12.61.31,5.64.31,12.61S283.62,174.86,283.45,174.86Z" style="fill:#fafafa"></path><rect x="244.25" y="136.57" width="13.17" height="49.3" style="fill:#263238"></rect><path d="M248,186.51a1.13,1.13,0,0,1-.16-.27c-.09-.18-.22-.46-.37-.82a14.19,14.19,0,0,1-1-3.35,8.7,8.7,0,0,1,.77-5.42,7.38,7.38,0,0,1,2.33-2.58,5.41,5.41,0,0,1,3.8-.89,4,4,0,0,1,2,.9,2.63,2.63,0,0,1,.95,2.08,3,3,0,0,1-1.13,2.09,4.15,4.15,0,0,1-2.25,1,6,6,0,0,1-4.67-1.7,7.51,7.51,0,0,1-2.31-4.74,12.51,12.51,0,0,1,.68-5.5,10.17,10.17,0,0,1,3.23-4.81,5.34,5.34,0,0,1,2.84-1.12,3.71,3.71,0,0,1,3,1,2.42,2.42,0,0,1,.68,1.54,2.83,2.83,0,0,1-.45,1.62,4.29,4.29,0,0,1-2.66,1.81,6.23,6.23,0,0,1-5.81-1.94,9.76,9.76,0,0,1-2.25-5.56,13.56,13.56,0,0,1,.56-5.75,8,8,0,0,1,3.41-4.38,5.86,5.86,0,0,1,5.23-.55,2.75,2.75,0,0,1,1.7,2,3.17,3.17,0,0,1-.6,2.48,4.11,4.11,0,0,1-4.44,1.17,7.68,7.68,0,0,1-3.5-2.48,11.13,11.13,0,0,1-2.62-6.76,10.86,10.86,0,0,1,3.28-8.15,6.14,6.14,0,0,1,.69-.59,1.16,1.16,0,0,1,.25-.18,12.72,12.72,0,0,0-2.79,3.67,10.63,10.63,0,0,0-1.09,5.23,10.89,10.89,0,0,0,2.62,6.49,7.17,7.17,0,0,0,3.3,2.31,3.61,3.61,0,0,0,3.89-1,2.67,2.67,0,0,0,.49-2.07,2.22,2.22,0,0,0-1.4-1.62,5.29,5.29,0,0,0-4.72.54,7.39,7.39,0,0,0-3.14,4.08,13.16,13.16,0,0,0-.52,5.5,9.06,9.06,0,0,0,2.11,5.2,5.62,5.62,0,0,0,5.21,1.76,3.73,3.73,0,0,0,2.27-1.54,1.9,1.9,0,0,0-.15-2.41,3.11,3.11,0,0,0-2.46-.86,4.68,4.68,0,0,0-2.52,1,9.55,9.55,0,0,0-3,4.51,12.17,12.17,0,0,0-.68,5.24,7,7,0,0,0,2.13,4.41,5.42,5.42,0,0,0,4.24,1.58,3.14,3.14,0,0,0,3-2.55,2.12,2.12,0,0,0-.77-1.71,3.52,3.52,0,0,0-1.73-.82,5,5,0,0,0-3.51.79,7.07,7.07,0,0,0-2.25,2.42,8.59,8.59,0,0,0-.83,5.22,15.58,15.58,0,0,0,.83,3.33C247.81,186.11,248,186.49,248,186.51Z" style="fill:#fafafa"></path><rect x="257.6" y="140.99" width="22.86" height="44.9" style="fill:#407BFF"></rect><g style="opacity:0.2"><rect x="257.6" y="140.99" width="22.86" height="44.9"></rect></g><path d="M279.67,148.45c0,.17-4.95.31-11.06.31s-11.06-.14-11.06-.31,4.95-.31,11.06-.31S279.67,148.28,279.67,148.45Z" style="fill:#e0e0e0"></path><path d="M280,151.86c0,.17-4.89.31-10.92.31s-10.92-.14-10.92-.31,4.89-.31,10.92-.31S280,151.69,280,151.86Z" style="fill:#e0e0e0"></path><path d="M280.69,180.82c0,.17-5.15.31-11.5.31s-11.5-.14-11.5-.31,5.15-.31,11.5-.31S280.69,180.65,280.69,180.82Z" style="fill:#e0e0e0"></path><path d="M280.38,176.82c0,.17-5,.31-11.2.31S258,177,258,176.82s5-.31,11.2-.31S280.38,176.65,280.38,176.82Z" style="fill:#e0e0e0"></path><rect x="200.16" y="136.25" width="13.17" height="49.3" style="fill:#455a64"></rect><path d="M203.86,186.19a1.41,1.41,0,0,1-.15-.27c-.09-.18-.22-.45-.38-.82a14.16,14.16,0,0,1-1-3.34,8.73,8.73,0,0,1,.77-5.43,7.09,7.09,0,0,1,2.33-2.57,5.41,5.41,0,0,1,3.8-.9,4,4,0,0,1,2,.91,2.58,2.58,0,0,1,.94,2.08,3,3,0,0,1-1.12,2.09,4.14,4.14,0,0,1-2.25.95,6,6,0,0,1-4.67-1.7,7.55,7.55,0,0,1-2.32-4.74,12.68,12.68,0,0,1,.69-5.5,10,10,0,0,1,3.23-4.8,5.19,5.19,0,0,1,2.84-1.12,3.67,3.67,0,0,1,3,1,2.47,2.47,0,0,1,.68,1.55,2.75,2.75,0,0,1-.46,1.61,4.26,4.26,0,0,1-2.65,1.81,6.21,6.21,0,0,1-5.81-1.94,9.68,9.68,0,0,1-2.26-5.55,13.77,13.77,0,0,1,.57-5.76,7.89,7.89,0,0,1,3.4-4.37,5.82,5.82,0,0,1,5.24-.55,2.77,2.77,0,0,1,1.7,2,3.19,3.19,0,0,1-.6,2.48,4.12,4.12,0,0,1-4.44,1.18,7.72,7.72,0,0,1-3.5-2.49,11.21,11.21,0,0,1-2.63-6.76,11,11,0,0,1,1.22-5.36,10.62,10.62,0,0,1,2.07-2.79,7.45,7.45,0,0,1,.69-.59c.16-.12.24-.18.25-.17a12.37,12.37,0,0,0-2.79,3.66,10.67,10.67,0,0,0-1.09,5.24,10.92,10.92,0,0,0,2.61,6.49,7.32,7.32,0,0,0,3.31,2.31,3.64,3.64,0,0,0,3.89-1,2.67,2.67,0,0,0,.49-2.07,2.2,2.2,0,0,0-1.4-1.61,5.28,5.28,0,0,0-4.72.54,7.36,7.36,0,0,0-3.14,4.08,12.94,12.94,0,0,0-.52,5.49,9.06,9.06,0,0,0,2.11,5.2,5.6,5.6,0,0,0,5.21,1.76,3.65,3.65,0,0,0,2.27-1.54,1.88,1.88,0,0,0-.15-2.4,3.05,3.05,0,0,0-2.47-.86,4.62,4.62,0,0,0-2.52,1,9.58,9.58,0,0,0-3,4.51,12,12,0,0,0-.68,5.24,7,7,0,0,0,2.12,4.41,5.49,5.49,0,0,0,4.24,1.59,3.16,3.16,0,0,0,3-2.56,2.12,2.12,0,0,0-.78-1.71,3.52,3.52,0,0,0-1.73-.82,5,5,0,0,0-3.5.8,6.78,6.78,0,0,0-2.25,2.41,8.52,8.52,0,0,0-.83,5.22,15.58,15.58,0,0,0,.83,3.33A11.62,11.62,0,0,1,203.86,186.19Z" style="fill:#fafafa"></path><rect x="286.94" y="133.76" width="18.31" height="51.79" style="fill:#455a64"></rect><rect x="183.04" y="139.45" width="17.12" height="46.11" style="fill:#263238"></rect><path d="M182.61,162.44a2.5,2.5,0,0,1-.56.74,8,8,0,0,1-2,1.52,9.32,9.32,0,0,1-3.58,1.11,9,9,0,0,1-4.52-.74c-1.49-.64-2.79-1.44-4.07-1.9a6.2,6.2,0,0,0-3.48-.43,4,4,0,0,0-2.1,1.08c-.4.41-.53.71-.57.69a1.56,1.56,0,0,1,.42-.82,4,4,0,0,1,2.16-1.31,6.44,6.44,0,0,1,3.74.34c1.34.46,2.66,1.25,4.11,1.87a8.76,8.76,0,0,0,4.27.74,9.38,9.38,0,0,0,3.44-1A14.31,14.31,0,0,0,182.61,162.44Z" style="fill:#fafafa"></path><path d="M183,167a2.61,2.61,0,0,1-.55.73,8.32,8.32,0,0,1-2,1.53,9.22,9.22,0,0,1-3.57,1.1,9,9,0,0,1-4.52-.74c-1.5-.64-2.8-1.43-4.07-1.9a6.33,6.33,0,0,0-3.49-.43,4.08,4.08,0,0,0-2.09,1.08c-.4.41-.53.72-.58.69a1.68,1.68,0,0,1,.43-.82,4,4,0,0,1,2.16-1.31,6.49,6.49,0,0,1,3.73.34c1.34.46,2.67,1.26,4.11,1.87a8.94,8.94,0,0,0,4.28.75,9.49,9.49,0,0,0,3.44-1A14.7,14.7,0,0,0,183,167Z" style="fill:#fafafa"></path><path d="M182.71,152.24c0,.14-4.72.26-10.53.26s-10.53-.12-10.53-.26a104.61,104.61,0,0,1,10.53-.26A104.61,104.61,0,0,1,182.71,152.24Z" style="fill:#fafafa"></path><path d="M190.46,146.88s.07-.17.34-.32a1.89,1.89,0,0,1,1.24-.17,2.14,2.14,0,0,1,1.51,1.13,2.1,2.1,0,0,1-2.78,2.67,2.12,2.12,0,0,1-1.06-1.56,1.83,1.83,0,0,1,.22-1.23c.16-.26.31-.34.32-.32a2.6,2.6,0,0,0-.18,1.48,1.79,1.79,0,0,0,.92,1.2,1.66,1.66,0,0,0,2.12-2,1.82,1.82,0,0,0-1.16-1A2.46,2.46,0,0,0,190.46,146.88Z" style="fill:#fafafa"></path><path d="M191.57,180.94c-.14,0-.26-6.46-.26-14.43s.12-14.44.26-14.44.26,6.46.26,14.44S191.72,180.94,191.57,180.94Z" style="fill:#fafafa"></path><rect x="161.95" y="342.4" width="21.71" height="37.41" style="fill:#407BFF"></rect><rect x="227.08" y="333.7" width="17.14" height="46.71" style="fill:#455a64"></rect><path d="M244.42,337.08a74.81,74.81,0,0,1-8.75.26,74.92,74.92,0,0,1-8.76-.26,72.38,72.38,0,0,1,8.76-.26A72.27,72.27,0,0,1,244.42,337.08Z" style="fill:#fafafa"></path><path d="M243.47,339.29a64.75,64.75,0,0,1-8.28.26,64.75,64.75,0,0,1-8.28-.26,67,67,0,0,1,8.28-.26A67,67,0,0,1,243.47,339.29Z" style="fill:#fafafa"></path><path d="M236.14,371.2c-.14,0-.26-6.19-.26-13.82s.12-13.82.26-13.82.26,6.19.26,13.82S236.29,371.2,236.14,371.2Z" style="fill:#fafafa"></path><path d="M244.22,375.47a66.35,66.35,0,0,1-8.39.26,66.48,66.48,0,0,1-8.39-.26,68.82,68.82,0,0,1,8.39-.26A68.68,68.68,0,0,1,244.22,375.47Z" style="fill:#fafafa"></path><path d="M244.22,377.48a72.24,72.24,0,0,1-8.6.26,72.24,72.24,0,0,1-8.6-.26,69.79,69.79,0,0,1,8.6-.26A69.79,69.79,0,0,1,244.22,377.48Z" style="fill:#fafafa"></path><rect x="213.32" y="328.65" width="13.77" height="51.76" style="fill:#407BFF"></rect><path d="M227.18,352.42a12.55,12.55,0,0,1-1.9,1.77c-1.22,1-2.94,2.42-4.89,3.89s-3.74,2.77-5.06,3.67a13.05,13.05,0,0,1-2.2,1.36,12,12,0,0,1,2-1.66l5-3.78,5-3.77A13.91,13.91,0,0,1,227.18,352.42Z" style="fill:#fafafa"></path><path d="M227.24,344.32a78.57,78.57,0,0,1-6.71,6.09,77.26,77.26,0,0,1-7.05,5.7,78.57,78.57,0,0,1,6.71-6.09A77.26,77.26,0,0,1,227.24,344.32Z" style="fill:#fafafa"></path><rect x="280.35" y="331.14" width="6.59" height="49.3" style="fill:#455a64"></rect><path d="M286.67,337.86a15.51,15.51,0,0,1-6.17,0,15.51,15.51,0,0,1,6.17,0Z" style="fill:#fafafa"></path><path d="M286.8,336.78c0,.18-1.38.31-3.08.31s-3.09-.13-3.09-.31a15.51,15.51,0,0,1,6.17,0Z" style="fill:#fafafa"></path><path d="M286.67,376.63a15.51,15.51,0,0,1-6.17,0,15.51,15.51,0,0,1,6.17,0Z" style="fill:#fafafa"></path><path d="M286.8,375.56a15.51,15.51,0,0,1-6.17,0,15.51,15.51,0,0,1,6.17,0Z" style="fill:#fafafa"></path><path d="M283.45,369.12c-.17,0-.31-5.65-.31-12.61s.14-12.61.31-12.61.31,5.64.31,12.61S283.62,369.12,283.45,369.12Z" style="fill:#fafafa"></path><rect x="244.25" y="330.83" width="13.17" height="49.3" style="fill:#263238"></rect><path d="M248,380.76s-.07-.08-.16-.27-.22-.45-.37-.82a14.09,14.09,0,0,1-1-3.34,8.69,8.69,0,0,1,.77-5.42,7.3,7.3,0,0,1,2.33-2.58,5.47,5.47,0,0,1,3.8-.9,4,4,0,0,1,2,.91,2.62,2.62,0,0,1,.95,2.08,3,3,0,0,1-1.13,2.09,4.07,4.07,0,0,1-2.25.95,6,6,0,0,1-4.67-1.7,7.47,7.47,0,0,1-2.31-4.74,12.53,12.53,0,0,1,.68-5.5,10.15,10.15,0,0,1,3.23-4.8,5.26,5.26,0,0,1,2.84-1.12,3.68,3.68,0,0,1,3,1,2.42,2.42,0,0,1,.68,1.54,2.82,2.82,0,0,1-.45,1.61,4.3,4.3,0,0,1-2.66,1.82,6.22,6.22,0,0,1-5.81-1.95,9.73,9.73,0,0,1-2.25-5.55,13.56,13.56,0,0,1,.56-5.75,8,8,0,0,1,3.41-4.38,5.83,5.83,0,0,1,5.23-.55,2.75,2.75,0,0,1,1.7,2,3.18,3.18,0,0,1-.6,2.49,4.11,4.11,0,0,1-4.44,1.17,7.7,7.7,0,0,1-3.5-2.49,11.11,11.11,0,0,1-2.62-6.76,10.8,10.8,0,0,1,1.21-5.35,10.93,10.93,0,0,1,2.07-2.8,7.45,7.45,0,0,1,.69-.59,1.29,1.29,0,0,1,.25-.17,12.55,12.55,0,0,0-2.79,3.66,10.67,10.67,0,0,0-1.09,5.24,10.89,10.89,0,0,0,2.62,6.49,7.24,7.24,0,0,0,3.3,2.31,3.65,3.65,0,0,0,3.89-1,2.69,2.69,0,0,0,.49-2.08,2.2,2.2,0,0,0-1.4-1.61,5.29,5.29,0,0,0-4.72.54,7.36,7.36,0,0,0-3.14,4.08,13.14,13.14,0,0,0-.52,5.5,9.08,9.08,0,0,0,2.11,5.2,5.61,5.61,0,0,0,5.21,1.75,3.65,3.65,0,0,0,2.27-1.54,1.88,1.88,0,0,0-.15-2.4,3.08,3.08,0,0,0-2.46-.86,4.75,4.75,0,0,0-2.52,1,9.6,9.6,0,0,0-3,4.51,12.24,12.24,0,0,0-.68,5.25,6.92,6.92,0,0,0,2.13,4.4,5.43,5.43,0,0,0,4.24,1.59,3.14,3.14,0,0,0,3-2.56,2.15,2.15,0,0,0-.77-1.71,3.59,3.59,0,0,0-1.73-.81,5,5,0,0,0-3.51.79,7,7,0,0,0-2.25,2.41,8.62,8.62,0,0,0-.83,5.23,15.58,15.58,0,0,0,.83,3.33C247.81,380.37,248,380.75,248,380.76Z" style="fill:#fafafa"></path><rect x="257.6" y="335.25" width="22.86" height="44.9" style="fill:#407BFF"></rect><g style="opacity:0.2"><rect x="257.6" y="335.25" width="22.86" height="44.9"></rect></g><path d="M279.67,342.71c0,.17-4.95.31-11.06.31s-11.06-.14-11.06-.31,4.95-.31,11.06-.31S279.67,342.54,279.67,342.71Z" style="fill:#e0e0e0"></path><path d="M280,346.11c0,.17-4.89.31-10.92.31s-10.92-.14-10.92-.31,4.89-.31,10.92-.31S280,345.94,280,346.11Z" style="fill:#e0e0e0"></path><path d="M280.69,375.07c0,.18-5.15.32-11.5.32s-11.5-.14-11.5-.32,5.15-.31,11.5-.31S280.69,374.9,280.69,375.07Z" style="fill:#e0e0e0"></path><path d="M280.38,371.07c0,.18-5,.31-11.2.31s-11.2-.13-11.2-.31,5-.31,11.2-.31S280.38,370.9,280.38,371.07Z" style="fill:#e0e0e0"></path><rect x="200.16" y="330.51" width="13.17" height="49.3" style="fill:#455a64"></rect><path d="M203.86,380.45a1.41,1.41,0,0,1-.15-.27c-.09-.18-.22-.46-.38-.82a14.27,14.27,0,0,1-1-3.35,8.7,8.7,0,0,1,.77-5.42,7.2,7.2,0,0,1,2.33-2.58,5.41,5.41,0,0,1,3.8-.89,4,4,0,0,1,2,.9,2.59,2.59,0,0,1,.94,2.08,3,3,0,0,1-1.12,2.09,4.15,4.15,0,0,1-2.25,1,6,6,0,0,1-4.67-1.7,7.58,7.58,0,0,1-2.32-4.74,12.66,12.66,0,0,1,.69-5.5,10.1,10.1,0,0,1,3.23-4.81,5.34,5.34,0,0,1,2.84-1.12,3.71,3.71,0,0,1,3,1.05,2.42,2.42,0,0,1,.68,1.54,2.76,2.76,0,0,1-.46,1.62,4.26,4.26,0,0,1-2.65,1.81,6.23,6.23,0,0,1-5.81-1.94,9.71,9.71,0,0,1-2.26-5.55,13.76,13.76,0,0,1,.57-5.76,8,8,0,0,1,3.4-4.38,5.88,5.88,0,0,1,5.24-.55,2.77,2.77,0,0,1,1.7,2,3.21,3.21,0,0,1-.6,2.48,4.12,4.12,0,0,1-4.44,1.17,7.63,7.63,0,0,1-3.5-2.48,11.21,11.21,0,0,1-2.63-6.76,11,11,0,0,1,1.22-5.36,10.62,10.62,0,0,1,2.07-2.79,7.45,7.45,0,0,1,.69-.59c.16-.13.24-.19.25-.18a12.72,12.72,0,0,0-2.79,3.67,10.63,10.63,0,0,0-1.09,5.23,10.87,10.87,0,0,0,2.61,6.49,7.27,7.27,0,0,0,3.31,2.32,3.64,3.64,0,0,0,3.89-1,2.67,2.67,0,0,0,.49-2.07,2.23,2.23,0,0,0-1.4-1.62,5.28,5.28,0,0,0-4.72.54,7.39,7.39,0,0,0-3.14,4.08,13,13,0,0,0-.52,5.5,9.06,9.06,0,0,0,2.11,5.2A5.62,5.62,0,0,0,209,360.7a3.73,3.73,0,0,0,2.27-1.54,1.9,1.9,0,0,0-.15-2.41,3.12,3.12,0,0,0-2.47-.86,4.71,4.71,0,0,0-2.52,1,9.58,9.58,0,0,0-3,4.51,12,12,0,0,0-.68,5.24,7,7,0,0,0,2.12,4.41,5.45,5.45,0,0,0,4.24,1.58,3.15,3.15,0,0,0,3-2.55,2.1,2.1,0,0,0-.78-1.71,3.44,3.44,0,0,0-1.73-.82,5,5,0,0,0-3.5.79,6.89,6.89,0,0,0-2.25,2.42,8.52,8.52,0,0,0-.83,5.22,15.58,15.58,0,0,0,.83,3.33A10.58,10.58,0,0,1,203.86,380.45Z" style="fill:#fafafa"></path><rect x="286.94" y="328.02" width="18.31" height="51.79" style="fill:#455a64"></rect><rect x="183.04" y="333.7" width="17.12" height="46.11" style="fill:#263238"></rect><path d="M182.61,356.7a2.4,2.4,0,0,1-.56.73,7.75,7.75,0,0,1-2,1.53,9.5,9.5,0,0,1-3.58,1.11,9.16,9.16,0,0,1-4.52-.74c-1.49-.65-2.79-1.44-4.07-1.91a6.39,6.39,0,0,0-3.48-.43,4.12,4.12,0,0,0-2.1,1.09c-.4.4-.53.71-.57.69a1.57,1.57,0,0,1,.42-.83,4,4,0,0,1,2.16-1.31,6.52,6.52,0,0,1,3.74.34c1.34.47,2.66,1.26,4.11,1.88a8.87,8.87,0,0,0,4.27.74,9.38,9.38,0,0,0,3.44-1A14.05,14.05,0,0,0,182.61,356.7Z" style="fill:#fafafa"></path><path d="M183,361.26a2.55,2.55,0,0,1-.55.74,8.07,8.07,0,0,1-2,1.52,9.21,9.21,0,0,1-3.57,1.11,9,9,0,0,1-4.52-.74c-1.5-.64-2.8-1.44-4.07-1.9a6.24,6.24,0,0,0-3.49-.43,4,4,0,0,0-2.09,1.08c-.4.41-.53.71-.58.69a1.64,1.64,0,0,1,.43-.82,4,4,0,0,1,2.16-1.31,6.41,6.41,0,0,1,3.73.34c1.34.46,2.67,1.25,4.11,1.87a8.81,8.81,0,0,0,4.28.74,9.5,9.5,0,0,0,3.44-.95A14.41,14.41,0,0,0,183,361.26Z" style="fill:#fafafa"></path><path d="M182.71,346.49a104.61,104.61,0,0,1-10.53.26,104.61,104.61,0,0,1-10.53-.26c0-.14,4.72-.26,10.53-.26S182.71,346.35,182.71,346.49Z" style="fill:#fafafa"></path><path d="M190.46,341.13s.07-.16.34-.31a1.83,1.83,0,0,1,1.24-.17,2.1,2.1,0,0,1,1.51,1.12,2.1,2.1,0,0,1-2.78,2.67,2.1,2.1,0,0,1-1.06-1.55,1.87,1.87,0,0,1,.22-1.24c.16-.25.31-.33.32-.31a2.6,2.6,0,0,0-.18,1.48A1.79,1.79,0,0,0,191,344a1.65,1.65,0,0,0,2.12-2,1.79,1.79,0,0,0-1.16-1A2.61,2.61,0,0,0,190.46,341.13Z" style="fill:#fafafa"></path><path d="M191.57,375.2c-.14,0-.26-6.47-.26-14.44s.12-14.43.26-14.43.26,6.46.26,14.43S191.72,375.2,191.57,375.2Z" style="fill:#fafafa"></path><g style="opacity:0.6000000000000001"><rect x="319.47" y="56.5" width="45.32" height="376.72"></rect></g><path d="M305.22,250.55c0,.15-35.77.26-79.88.26s-79.89-.11-79.89-.26,35.76-.26,79.89-.26S305.22,250.41,305.22,250.55Z" style="fill:#263238"></path><path d="M305.22,316c0,.14-35.77.26-79.88.26s-79.89-.12-79.89-.26,35.76-.26,79.89-.26S305.22,315.85,305.22,316Z" style="fill:#263238"></path><path d="M305.22,185.56c0,.14-35.77.26-79.88.26s-79.89-.12-79.89-.26,35.76-.26,79.89-.26S305.22,185.41,305.22,185.56Z" style="fill:#263238"></path><path d="M305.22,120.66c0,.14-35.77.26-79.88.26s-79.89-.12-79.89-.26,35.76-.26,79.89-.26S305.22,120.52,305.22,120.66Z" style="fill:#263238"></path><path d="M305.22,380.13c0,.14-35.77.26-79.88.26s-79.89-.12-79.89-.26,35.76-.26,79.89-.26S305.22,380,305.22,380.13Z" style="fill:#263238"></path></g></svg>